<svg viewBox="0 0 281.24 44.01" xmlns="http://www.w3.org/2000/svg"><path d="m0 .85h11.73v32.04h20.49v10.27h-32.22z"/><path d="m60.94 26.42l-4.72-12-4.78 12zm-10.28-25.88h11.34l18 42.63h-12.59l-3-7.62h-16.41l-3 7.62h-12.29z"/><path d="m117.65 21.16c3.93 0 6.29-1.93 6.29-5v-.16c0-3.38-2.48-5.08-6.35-5.08h-7.74v10.24zm-19.53-20.31h20c6.47 0 10.94 1.69 13.78 4.53a13.21 13.21 0 0 1 3.75 9.85v.12c0 6.53-3.45 10.82-8.71 13.06l10.1 14.75h-13.47l-8.57-12.81h-5.2v12.82h-11.68z"/><path d="m140.62.85h11.73v42.31h-11.73z"/><path d="m191 22.13v-.13c0-6.17-4.35-11.43-10.82-11.43s-10.76 5.2-10.76 11.3v.13c0 6.11 4.41 11.43 10.88 11.43s10.7-5.2 10.7-11.3zm-33.55 0v-.13c0-12.15 9.79-22 22.85-22s22.7 9.73 22.7 21.88v.12c0 12.15-9.79 22-22.85 22s-22.73-9.73-22.73-21.88z"/><path d="m202.46 36.76l7.54-7.14c2.06 2.48 4 3.93 6.65 3.93 2.9 0 4.78-2 4.78-5.92v-26.78h11.67v26.84c0 5.32-1.33 9.07-4.17 11.91s-6.77 4.29-11.61 4.29c-7.38 0-11.85-3.08-14.87-7.13z"/><path d="m262.19 26.42l-4.71-12-4.78 12zm-10.27-25.88h11.3l18 42.62h-12.56l-3-7.62h-16.4l-3 7.62h-12.26l18-42.62z"/><path d="m0 .85h11.73v32.04h20.49v10.27h-32.22z"/><path d="m60.94 26.42l-4.72-12-4.78 12zm-10.28-25.88h11.34l18 42.63h-12.59l-3-7.62h-16.41l-3 7.62h-12.29z"/><path d="m117.65 21.16c3.93 0 6.29-1.93 6.29-5v-.16c0-3.38-2.48-5.08-6.35-5.08h-7.74v10.24zm-19.53-20.31h20c6.47 0 10.94 1.69 13.78 4.53a13.21 13.21 0 0 1 3.75 9.85v.12c0 6.53-3.45 10.82-8.71 13.06l10.1 14.75h-13.47l-8.57-12.81h-5.2v12.82h-11.68z"/><path d="m140.62.85h11.73v42.31h-11.73z"/><path d="m191 22.13v-.13c0-6.17-4.35-11.43-10.82-11.43s-10.76 5.2-10.76 11.3v.13c0 6.11 4.41 11.43 10.88 11.43s10.7-5.2 10.7-11.3zm-33.55 0v-.13c0-12.15 9.79-22 22.85-22s22.7 9.73 22.7 21.88v.12c0 12.15-9.79 22-22.85 22s-22.73-9.73-22.73-21.88z"/><path d="m202.46 36.76l7.54-7.14c2.06 2.48 4 3.93 6.65 3.93 2.9 0 4.78-2 4.78-5.92v-26.78h11.67v26.84c0 5.32-1.33 9.07-4.17 11.91s-6.77 4.29-11.61 4.29c-7.38 0-11.85-3.08-14.87-7.13z"/><path d="m262.19 26.42l-4.71-12-4.78 12zm-10.27-25.88h11.3l18 42.62h-12.56l-3-7.62h-16.4l-3 7.62h-12.26l18-42.62z"/></svg>