<?xml version="1.0" encoding="utf-8"?>
<!-- Generator: Adobe Illustrator 14.0.0, SVG Export Plug-In . SVG Version: 6.00 Build 43363)  -->
<!DOCTYPE svg PUBLIC "-//W3C//DTD SVG 1.1//EN" "http://www.w3.org/Graphics/SVG/1.1/DTD/svg11.dtd">
<svg version="1.1" id="Capa_1" xmlns="http://www.w3.org/2000/svg" xmlns:xlink="http://www.w3.org/1999/xlink" x="0px" y="0px"
	 width="200px" height="35px" viewBox="0 0 200 35" enable-background="new 0 0 200 35" xml:space="preserve">
<g>
	<path fill-rule="evenodd" clip-rule="evenodd" fill="#3B3932" d="M0.414,9.291V9.074c0.187-0.057,0.389-0.12,0.614-0.183
		c0.327-0.104,0.816-0.263,1.461-0.479h0.465C2.96,8.723,2.963,8.903,2.963,8.949c0,5.339-0.018,8.523-0.049,9.55
		c-0.021,0.606-0.027,0.927-0.027,0.967c0,0.729,0.027,1.135,0.088,1.22c0.078,0.117,0.319,0.198,0.719,0.245
		c0.408,0.045,0.649,0.09,0.721,0.135c0.054,0.027,0.08,0.074,0.08,0.137c0,0.073-0.017,0.124-0.049,0.155
		c-0.027,0.027-0.079,0.04-0.161,0.04c-0.044,0-0.388-0.008-1.034-0.027l-1.295-0.039l-1.659,0.066
		c-0.104,0.008-0.186-0.013-0.239-0.058C0.019,21.308,0,21.263,0,21.202c0-0.063,0.019-0.109,0.059-0.137
		c0.047-0.033,0.285-0.085,0.713-0.157c0.433-0.069,0.68-0.13,0.741-0.175c0.063-0.051,0.105-0.162,0.126-0.33
		c0.027-0.235,0.041-0.895,0.041-1.981l-0.01-2.244l0.03-2.32l-0.012-2.322l0.032-1.143c0-0.229-0.036-0.39-0.11-0.488
		C1.539,9.8,1.384,9.7,1.146,9.601C0.79,9.458,0.545,9.355,0.414,9.291z"/>
	<path fill-rule="evenodd" clip-rule="evenodd" fill="#3B3932" d="M5.153,18.016c0-0.377,0.079-0.783,0.236-1.21
		c0.165-0.435,0.409-0.823,0.737-1.165c0.327-0.346,0.674-0.601,1.042-0.768c0.515-0.235,1.14-0.353,1.88-0.353
		c1.053,0,1.936,0.358,2.642,1.072c0.711,0.712,1.066,1.573,1.066,2.573c0,0.895-0.373,1.691-1.117,2.394
		c-0.738,0.697-1.675,1.045-2.81,1.045c-0.702,0-1.363-0.181-1.984-0.543c-0.462-0.272-0.86-0.678-1.192-1.212
		C5.319,19.313,5.153,18.702,5.153,18.016z M8.896,21.278c0.428,0,0.839-0.113,1.237-0.343c0.4-0.229,0.717-0.595,0.956-1.096
		c0.237-0.509,0.357-1.092,0.357-1.757c0-0.434-0.094-0.939-0.281-1.512c-0.18-0.576-0.462-1.004-0.845-1.29
		c-0.379-0.289-0.826-0.434-1.338-0.435c-0.374,0-0.754,0.087-1.145,0.258c-0.385,0.175-0.711,0.506-0.982,0.998
		c-0.264,0.491-0.397,1.188-0.397,2.089c0,1.017,0.232,1.786,0.695,2.31C7.62,21.019,8.201,21.278,8.896,21.278z"/>
	<path fill-rule="evenodd" clip-rule="evenodd" fill="#3B3932" d="M13.72,21.086c0.091-0.063,0.216-0.103,0.372-0.126
		c0.228-0.028,0.402-0.072,0.527-0.134c0.102-0.085,0.167-0.203,0.205-0.358c0.038-0.202,0.055-0.906,0.055-2.116
		c0-1.187-0.035-1.954-0.108-2.299c-0.124-0.079-0.285-0.139-0.482-0.184c-0.061-0.012-0.19-0.042-0.39-0.092V15.5
		c0.334-0.096,0.6-0.218,0.806-0.369c0.207-0.148,0.496-0.449,0.861-0.902h0.053c0.033,0,0.086-0.001,0.162-0.009
		c0.043,0.008,0.079,0.02,0.109,0.043l-0.009,0.954c0,0.193,0.006,0.403,0.017,0.626c0.604-0.539,1.145-0.918,1.625-1.137
		c0.327-0.146,0.697-0.218,1.11-0.22c0.491,0,0.88,0.093,1.168,0.278c0.289,0.186,0.563,0.516,0.822,0.996
		c0.5-0.491,0.956-0.834,1.362-1.029c0.412-0.195,0.827-0.292,1.245-0.292c0.631,0,1.152,0.202,1.559,0.609
		c0.399,0.413,0.604,1.019,0.618,1.816v0.692l0.009,0.762l-0.009,1.956c-0.005,0.229,0.045,0.401,0.152,0.519
		c0.045,0.019,0.216,0.068,0.514,0.151c0.188,0.049,0.297,0.089,0.332,0.117c0.034,0.028,0.053,0.067,0.053,0.115
		c0,0.064-0.019,0.135-0.053,0.219h-0.06l-0.852-0.049c-0.104-0.006-0.265-0.008-0.484-0.01c-0.272,0-0.651,0.012-1.135,0.034
		h-0.433c-0.063,0-0.184,0.003-0.365,0.008c-0.006-0.049-0.009-0.095-0.009-0.135c0-0.043,0.02-0.101,0.059-0.165
		c0.155-0.067,0.363-0.121,0.628-0.162c0.265-0.041,0.429-0.117,0.49-0.224c0.069-0.111,0.104-0.546,0.104-1.305
		c0-1.646-0.021-2.598-0.059-2.861c-0.069-0.418-0.25-0.742-0.543-0.977c-0.289-0.24-0.653-0.359-1.093-0.363
		c-0.337,0-0.668,0.093-0.99,0.271c-0.322,0.174-0.637,0.435-0.947,0.785l-0.012,0.202v1.28l-0.032,0.995
		c0,1.014,0.01,1.592,0.024,1.729c0.024,0.142,0.072,0.244,0.144,0.313c0.08,0.063,0.303,0.117,0.669,0.165
		c0.166,0.024,0.292,0.047,0.38,0.066c0.069,0.057,0.105,0.131,0.105,0.218c0,0.073-0.027,0.123-0.079,0.15h-0.142l-0.424-0.008
		h-2.463l-0.679,0.008c-0.009-0.082-0.017-0.142-0.017-0.185l0.009-0.098c0.125-0.067,0.355-0.133,0.695-0.194
		c0.175-0.025,0.356-0.073,0.543-0.143c0.033-0.025,0.058-0.063,0.075-0.106c0.029-0.079,0.046-0.3,0.058-0.669l0.043-0.971
		L19.6,17.898l0.009-0.608c0-0.687-0.143-1.186-0.425-1.497c-0.281-0.318-0.639-0.478-1.066-0.478c-0.403,0-0.805,0.098-1.211,0.294
		c-0.402,0.192-0.734,0.457-1,0.784c-0.005,0.157-0.007,0.299-0.007,0.428l0.033,2.81c0.005,0.615,0.04,0.963,0.104,1.053
		c0.066,0.085,0.214,0.143,0.441,0.177c0.359,0.048,0.593,0.112,0.701,0.184c0.051,0.034,0.076,0.084,0.076,0.151
		c0,0.045-0.003,0.098-0.008,0.157c-0.646-0.043-1.075-0.065-1.294-0.065c-0.229,0-0.431,0.001-0.61,0.009l-0.424,0.023h-0.262
		l-0.95,0.033c-0.012-0.037-0.017-0.072-0.017-0.101C13.688,21.226,13.699,21.17,13.72,21.086z"/>
	<path fill-rule="evenodd" clip-rule="evenodd" fill="#3B3932" d="M33.46,16.962l-3.396,0.026h-0.645
		c-0.258,0-0.525,0.01-0.794,0.034c-0.05,0.166-0.077,0.281-0.077,0.342l0.009,0.083v0.083l-0.009,0.411
		c0,0.34,0.108,0.758,0.321,1.252c0.221,0.493,0.531,0.87,0.932,1.132c0.408,0.256,0.913,0.393,1.517,0.408
		c0.32-0.016,0.578-0.056,0.771-0.117c0.192-0.061,0.463-0.203,0.813-0.426l0.611-0.492l0.048,0.335
		c0,0.038-0.003,0.078-0.006,0.125c-0.255,0.317-0.576,0.596-0.965,0.834c-0.39,0.241-0.788,0.417-1.188,0.528
		c-0.192,0.05-0.507,0.077-0.947,0.077c-0.402,0-0.796-0.084-1.187-0.245c-0.576-0.245-1.032-0.637-1.364-1.179
		c-0.328-0.545-0.49-1.206-0.49-1.982c0-0.244,0.045-0.558,0.135-0.944c0.096-0.383,0.265-0.795,0.509-1.229
		c0.162-0.295,0.364-0.539,0.602-0.728c0.337-0.268,0.633-0.455,0.888-0.559c0.365-0.151,0.795-0.226,1.28-0.226
		c0.523,0,0.95,0.094,1.285,0.283c0.453,0.251,0.79,0.575,1.011,0.972c0.224,0.396,0.337,0.758,0.337,1.085V16.962z M28.733,16.662
		h0.399c0.288,0,1.146-0.041,2.575-0.135c0.228-0.009,0.363-0.033,0.415-0.066c0.102-0.106,0.153-0.199,0.153-0.285
		c0-0.172-0.056-0.368-0.169-0.584c-0.113-0.223-0.286-0.393-0.525-0.511c-0.23-0.12-0.502-0.183-0.813-0.183
		c-0.657,0-1.181,0.242-1.573,0.727C28.888,15.994,28.733,16.339,28.733,16.662z"/>
	<path fill-rule="evenodd" clip-rule="evenodd" fill="#3B3932" d="M35.061,11.261c0-0.213,0.07-0.388,0.211-0.528
		c0.148-0.146,0.323-0.216,0.526-0.216c0.205,0,0.386,0.068,0.525,0.209c0.145,0.138,0.217,0.32,0.219,0.543
		c0,0.227-0.08,0.427-0.234,0.601c-0.115,0.123-0.281,0.184-0.502,0.184c-0.21,0-0.387-0.071-0.535-0.216
		C35.131,11.688,35.061,11.493,35.061,11.261z M34.333,25.693l0.643-0.776c0.154-0.24,0.273-0.493,0.355-0.754
		c0.09-0.261,0.153-0.586,0.187-0.971c0.05-0.641,0.077-1.204,0.077-1.689c0-0.137-0.008-0.333-0.018-0.587l0.008-1.301
		c0.006-1.636-0.004-2.688-0.034-3.163c-0.017-0.295-0.061-0.479-0.134-0.55c-0.106-0.104-0.353-0.17-0.737-0.202
		c-0.042-0.006-0.097-0.012-0.17-0.017l0.016-0.319c0.741-0.185,1.277-0.493,1.608-0.927c0.077-0.089,0.157-0.179,0.249-0.267
		l0.061-0.009c0.025,0,0.065,0.011,0.115,0.033l0.028,3.043c0.039,2.122,0.058,3.278,0.058,3.459c0,1.072-0.058,1.849-0.168,2.329
		c-0.108,0.484-0.313,0.965-0.619,1.447c-0.215,0.333-0.523,0.678-0.924,1.034l-0.346,0.309l-0.119,0.069
		C34.417,25.84,34.371,25.777,34.333,25.693z"/>
	<path fill-rule="evenodd" clip-rule="evenodd" fill="#3B3932" d="M38.392,18.016c0-0.377,0.081-0.783,0.24-1.21
		c0.163-0.435,0.407-0.823,0.734-1.165c0.327-0.346,0.676-0.601,1.043-0.768c0.513-0.235,1.139-0.353,1.88-0.353
		c1.053,0,1.935,0.358,2.641,1.072c0.712,0.712,1.066,1.573,1.066,2.573c0,0.895-0.372,1.691-1.115,2.394
		c-0.741,0.697-1.677,1.045-2.813,1.045c-0.7,0-1.362-0.181-1.981-0.543c-0.464-0.272-0.862-0.678-1.193-1.212
		C38.56,19.313,38.392,18.702,38.392,18.016z M42.136,21.278c0.431,0,0.839-0.113,1.235-0.343c0.402-0.229,0.723-0.595,0.958-1.096
		c0.236-0.509,0.358-1.092,0.358-1.757c0-0.434-0.096-0.939-0.282-1.512c-0.181-0.576-0.462-1.004-0.845-1.29
		c-0.378-0.289-0.827-0.434-1.339-0.435c-0.373,0-0.753,0.087-1.142,0.258c-0.384,0.175-0.713,0.506-0.981,0.998
		c-0.268,0.491-0.4,1.188-0.4,2.089c0,1.017,0.235,1.786,0.695,2.31C40.857,21.019,41.441,21.278,42.136,21.278z"/>
	<path fill-rule="evenodd" clip-rule="evenodd" fill="#3B3932" d="M46.452,21.403l-0.034-0.107c0-0.04,0.027-0.099,0.076-0.177
		l0.497-0.101l0.704-0.126c0.056-0.025,0.096-0.064,0.117-0.117c0.036-0.072,0.053-0.285,0.053-0.643
		c0-1.896-0.011-2.989-0.035-3.278c-0.021-0.295-0.071-0.483-0.151-0.56c-0.079-0.08-0.284-0.139-0.607-0.186
		c-0.194-0.027-0.349-0.063-0.461-0.107l0.033-0.251c0.595-0.24,0.993-0.447,1.196-0.621c0.282-0.25,0.52-0.579,0.719-0.984
		l0.288,0.007c0.035,0.28,0.053,0.897,0.053,1.856l-0.009,0.14c0,0.035,0.005,0.088,0.015,0.162
		c0.216-0.385,0.482-0.739,0.805-1.062l0.193-0.192c0.078-0.089,0.157-0.16,0.229-0.21c0.393-0.234,0.69-0.352,0.88-0.352
		c0.25,0,0.453,0.084,0.611,0.253c0.159,0.161,0.236,0.362,0.236,0.6c0,0.191-0.057,0.337-0.171,0.445
		c-0.15,0.137-0.326,0.208-0.522,0.208c-0.092,0-0.269-0.047-0.536-0.142c-0.265-0.096-0.438-0.145-0.522-0.145
		c-0.161,0-0.269,0.028-0.331,0.078c-0.158,0.121-0.35,0.372-0.576,0.752c-0.176,0.283-0.262,0.546-0.262,0.785l0.042,1.379
		l0.017,1.655c0.017,0.19,0.041,0.313,0.067,0.368c0.025,0.041,0.078,0.09,0.169,0.145c0.61,0.048,0.97,0.084,1.085,0.107
		c0.079,0.005,0.14,0.012,0.18,0.015c0.242,0.009,0.408,0.043,0.506,0.103c0.051,0.028,0.076,0.07,0.076,0.125
		c0,0.033-0.023,0.078-0.067,0.133l-0.936-0.008l-0.357-0.007l-0.518,0.007h-0.864l-0.466,0.025L46.452,21.403z"/>
	<path fill-rule="evenodd" clip-rule="evenodd" fill="#3B3932" d="M58.065,15.307l0.01-0.242l-0.01-0.98l0.01-1.848
		c0-0.511-0.057-0.837-0.167-0.977c-0.115-0.14-0.445-0.283-0.99-0.428c-0.041-0.012-0.105-0.027-0.188-0.049V10.69
		c0-0.056,0.008-0.115,0.018-0.184c0.767-0.075,1.429-0.208,1.982-0.393l0.432-0.007c0.02,0.38,0.032,0.801,0.032,1.269l-0.032,3.22
		l0.059,3.631l-0.027,1.932c0,0.396,0.03,0.617,0.087,0.668c0.11,0.112,0.358,0.171,0.744,0.174c0.08,0,0.187,0.009,0.325,0.019
		v0.151c0,0.038-0.006,0.08-0.012,0.126c-0.175,0.037-0.355,0.074-0.542,0.107l-1.229,0.234c-0.179,0.033-0.324,0.048-0.429,0.048
		v-0.802c-0.096,0.028-0.247,0.083-0.449,0.169c-0.881,0.366-1.691,0.551-2.43,0.551c-0.448,0-0.902-0.141-1.362-0.428
		c-0.466-0.288-0.817-0.69-1.068-1.204c-0.249-0.513-0.371-1.035-0.371-1.571c0-0.478,0.076-0.935,0.244-1.37
		c0.165-0.442,0.379-0.806,0.643-1.096c0.17-0.189,0.41-0.375,0.72-0.562c0.311-0.189,0.566-0.308,0.77-0.358
		c0.501-0.128,0.84-0.193,1.007-0.193c0.765,0,1.391,0.112,1.882,0.334C57.875,15.23,57.988,15.28,58.065,15.307z M58.075,20.476
		c0.023-0.374,0.035-1.145,0.035-2.311c0-0.983-0.05-1.605-0.142-1.862c-0.091-0.262-0.322-0.508-0.695-0.736
		c-0.373-0.236-0.792-0.351-1.252-0.351c-0.648,0-1.203,0.246-1.652,0.743c-0.45,0.497-0.678,1.229-0.678,2.2
		c0,0.852,0.244,1.532,0.728,2.04c0.489,0.507,1.103,0.761,1.829,0.761c0.416,0,0.8-0.055,1.145-0.168
		C57.737,20.683,57.965,20.575,58.075,20.476z"/>
	<path fill-rule="evenodd" clip-rule="evenodd" fill="#3B3932" d="M67.09,16.962l-3.396,0.026h-0.642
		c-0.262,0-0.523,0.01-0.794,0.034c-0.051,0.166-0.078,0.281-0.078,0.342l0.009,0.083v0.083l-0.009,0.411
		c0,0.34,0.104,0.758,0.321,1.252c0.221,0.493,0.529,0.87,0.929,1.132c0.408,0.256,0.915,0.393,1.517,0.408
		c0.322-0.016,0.578-0.056,0.772-0.117c0.191-0.061,0.461-0.203,0.811-0.426l0.612-0.492l0.05,0.335
		c0,0.038-0.005,0.078-0.007,0.125c-0.256,0.317-0.578,0.596-0.966,0.834c-0.39,0.241-0.785,0.417-1.188,0.528
		c-0.189,0.05-0.504,0.077-0.946,0.077c-0.401,0-0.796-0.084-1.185-0.245c-0.576-0.245-1.032-0.637-1.364-1.179
		c-0.327-0.545-0.491-1.206-0.491-1.982c0-0.244,0.045-0.558,0.138-0.944c0.092-0.383,0.263-0.795,0.508-1.229
		c0.16-0.295,0.361-0.539,0.598-0.728c0.339-0.268,0.634-0.455,0.891-0.559c0.367-0.151,0.79-0.226,1.278-0.226
		c0.525,0,0.955,0.094,1.289,0.283c0.45,0.251,0.785,0.575,1.007,0.972c0.226,0.396,0.337,0.758,0.337,1.085V16.962z M62.367,16.662
		h0.396c0.29,0,1.148-0.041,2.576-0.135c0.224-0.009,0.363-0.033,0.414-0.066c0.101-0.106,0.155-0.199,0.155-0.285
		c0-0.172-0.06-0.368-0.17-0.584c-0.114-0.223-0.291-0.393-0.525-0.511c-0.233-0.12-0.503-0.183-0.815-0.183
		c-0.652,0-1.18,0.242-1.574,0.727C62.519,15.994,62.367,16.339,62.367,16.662z"/>
	<path fill-rule="evenodd" clip-rule="evenodd" fill="#3B3932" d="M68.049,11.016v-0.184c0.159-0.049,0.333-0.101,0.526-0.156
		c0.282-0.091,0.697-0.227,1.252-0.411h0.399c0.003,0.268,0.006,0.421,0.006,0.461c0,4.578-0.012,7.305-0.039,8.184
		c-0.02,0.521-0.026,0.795-0.026,0.829c0,0.626,0.026,0.974,0.074,1.047c0.07,0.098,0.275,0.167,0.619,0.206
		c0.35,0.04,0.557,0.08,0.616,0.12c0.046,0.022,0.07,0.061,0.071,0.115c0,0.061-0.016,0.105-0.046,0.133
		c-0.021,0.024-0.064,0.034-0.133,0.034c-0.041,0-0.334-0.009-0.889-0.024l-1.109-0.034l-1.422,0.059
		c-0.09,0.008-0.159-0.01-0.204-0.049c-0.035-0.029-0.052-0.067-0.052-0.118c0-0.055,0.017-0.093,0.052-0.115
		c0.039-0.029,0.243-0.076,0.611-0.136c0.373-0.061,0.584-0.109,0.634-0.15c0.056-0.044,0.092-0.138,0.11-0.285
		c0.023-0.2,0.034-0.765,0.034-1.696l-0.009-1.924l0.026-1.99l-0.009-1.989l0.025-0.979c0-0.195-0.029-0.334-0.094-0.418
		c-0.06-0.089-0.192-0.176-0.396-0.26C68.371,11.163,68.161,11.074,68.049,11.016z"/>
	<path fill-rule="evenodd" clip-rule="evenodd" fill="#6A1C55" d="M71.492,13.369l0.225-0.01l2.057,0.048l0.613,0.01l1.304-0.049
		h0.224c0.043,0.124,0.062,0.218,0.062,0.284c0,0.076-0.012,0.197-0.039,0.359c-0.128,0.021-0.272,0.039-0.437,0.059
		c-0.321,0.046-0.525,0.099-0.603,0.158c-0.057,0.037-0.089,0.079-0.089,0.126c0,0.11,0.042,0.246,0.13,0.41
		c0.037,0.066,0.13,0.276,0.276,0.634c0.06,0.158,0.167,0.389,0.327,0.703c0.494,1.009,0.845,1.792,1.055,2.352
		c0.125,0.331,0.228,0.574,0.307,0.729c0.459-1.044,0.957-2.378,1.49-3.999c0.139-0.421,0.221-0.764,0.239-1.023
		c-0.389-0.061-0.75-0.089-1.088-0.089h-0.117l-0.158-0.02c-0.015-0.116-0.021-0.226-0.021-0.33c0-0.157,0.028-0.273,0.082-0.351
		l0.346-0.03l0.857,0.01h0.484c0.296,0.027,0.605,0.04,0.93,0.04l0.791-0.04c0.066,0,0.156,0.004,0.275,0.01
		c0.007,0.116,0.01,0.211,0.01,0.282c0,0.073-0.003,0.163-0.01,0.273c-0.669,0.156-1.135,0.302-1.392,0.44
		c-0.045,0.093-0.077,0.154-0.09,0.185l-0.038,0.088c-0.264,0.779-0.681,1.812-1.257,3.094l-1.065,2.545
		c-0.138,0.325-0.24,0.55-0.307,0.673c-0.113,0.223-0.208,0.414-0.286,0.575h-0.803c-0.256-0.435-0.523-0.964-0.8-1.59l-1.342-2.966
		c-0.327-0.785-0.703-1.614-1.128-2.487c-0.051-0.112-0.094-0.179-0.126-0.206c-0.532-0.143-0.839-0.253-0.919-0.331
		c-0.01-0.077-0.018-0.167-0.018-0.264C71.442,13.548,71.458,13.447,71.492,13.369z"/>
	<path fill-rule="evenodd" clip-rule="evenodd" fill="#6A1C55" d="M82.555,9.68c0-0.351,0.116-0.637,0.347-0.859
		c0.228-0.227,0.528-0.339,0.89-0.341c0.389,0,0.709,0.122,0.967,0.361c0.257,0.233,0.383,0.501,0.383,0.798
		c0,0.223-0.051,0.445-0.156,0.665c-0.1,0.223-0.261,0.401-0.484,0.538c-0.215,0.131-0.442,0.196-0.672,0.196
		c-0.316,0-0.609-0.135-0.877-0.403C82.688,10.37,82.555,10.051,82.555,9.68z M81.172,21.319l-0.021-0.634l1.118-0.145
		c0.166-0.048,0.276-0.11,0.337-0.196c0.065-0.091,0.098-0.289,0.098-0.594V19.64c0-0.076,0.003-0.216,0.008-0.417
		c0.016-0.208,0.02-0.392,0.02-0.547c0-0.123-0.01-0.362-0.028-0.713l0.008-0.487l-0.008-0.459l0.019-1.587
		c0-0.204-0.019-0.411-0.059-0.626c-0.072-0.097-0.203-0.182-0.395-0.255c-0.191-0.069-0.523-0.121-0.996-0.155v-0.546
		c0.675-0.038,1.272-0.177,1.788-0.419c0.349-0.156,0.726-0.431,1.133-0.829h0.665c0.024,0.806,0.034,1.853,0.034,3.142
		l-0.065,3.981c0,0.272,0.014,0.52,0.038,0.741c0.209,0.071,0.54,0.143,0.998,0.213c0.181,0.028,0.324,0.059,0.428,0.1l-0.01,0.536
		c-0.177,0.006-0.311,0.009-0.395,0.009c-0.101,0-0.25-0.007-0.456-0.019c-0.672-0.032-1.573-0.049-2.699-0.049
		c-0.32,0-0.636,0.012-0.936,0.041C81.494,21.311,81.282,21.319,81.172,21.319z"/>
	<path fill-rule="evenodd" clip-rule="evenodd" fill="#6A1C55" d="M86.95,20.823c0.172-0.078,0.333-0.131,0.477-0.156
		c0.361-0.059,0.573-0.108,0.631-0.146c0.1-0.059,0.165-0.132,0.199-0.216c0.037-0.129,0.06-0.416,0.06-0.858v-0.85l0.007-0.69
		l-0.03-1.025v-0.613c0-0.412-0.032-0.747-0.098-1.007c-0.024-0.098-0.109-0.196-0.247-0.293c-0.183-0.129-0.499-0.255-0.937-0.38
		L87,14.119c0.086-0.024,0.161-0.041,0.229-0.048c0.07-0.012,0.337-0.077,0.799-0.194c0.361-0.131,0.596-0.222,0.703-0.274
		c0.032-0.02,0.083-0.049,0.158-0.086c0.078-0.066,0.167-0.13,0.268-0.195c0.195-0.137,0.432-0.375,0.708-0.715l0.525-0.038
		l-0.02,1.103c-0.006,0.11-0.009,0.2-0.009,0.264c0,0.052,0.003,0.202,0.009,0.448c0.545-0.469,1.044-0.794,1.491-0.975
		c0.587-0.24,1.145-0.361,1.669-0.361c0.619,0,1.163,0.154,1.631,0.459c0.47,0.299,0.773,0.647,0.918,1.042
		c0.144,0.398,0.219,1.199,0.219,2.402l-0.042,3.179c0,0.153,0.026,0.275,0.079,0.373c0.066,0.052,0.247,0.1,0.543,0.146
		l0.486,0.087c0.06,0.086,0.088,0.189,0.088,0.314c0,0.077-0.002,0.184-0.008,0.322l-1.94-0.139l-0.571,0.021H94.48l-1.305,0.098
		h-0.334c-0.01-0.086-0.01-0.149-0.01-0.195c0-0.118,0.005-0.246,0.018-0.38c0.092-0.021,0.323-0.054,0.691-0.1
		c0.099-0.012,0.208-0.036,0.325-0.066c0.134-0.053,0.209-0.104,0.229-0.157c0.05-0.11,0.079-0.323,0.079-0.633
		c0-0.547-0.009-0.968-0.02-1.261l0.009-1.129c0.007-1.374-0.077-2.229-0.255-2.568c-0.253-0.488-0.626-0.731-1.126-0.731
		c-0.369,0-0.752,0.094-1.146,0.283c-0.394,0.183-0.805,0.462-1.224,0.839l-0.021,0.167l0.021,0.615l-0.01,0.652l0.04,1.561
		l-0.021,0.245c0,1.058,0.042,1.657,0.13,1.795c0.086,0.136,0.41,0.285,0.979,0.447c0.019,0.11,0.031,0.192,0.031,0.245
		c0,0.077-0.025,0.197-0.069,0.361c-0.208,0.006-0.381,0.01-0.516,0.01c-0.139,0-0.355-0.019-0.653-0.057l-1.057-0.021
		c-0.526,0-1.29,0.021-2.281,0.067c-0.029-0.064-0.04-0.133-0.04-0.205C86.942,21.083,86.943,20.979,86.95,20.823z"/>
	<path fill-rule="evenodd" clip-rule="evenodd" fill="#6A1C55" d="M106.273,14.207c0.424,0.405,0.738,0.869,0.939,1.396
		c0.211,0.521,0.316,1.011,0.316,1.474c0,0.871-0.133,1.574-0.406,2.105c-0.408,0.81-0.955,1.404-1.645,1.785
		c-0.697,0.386-1.498,0.578-2.414,0.578c-1.027,0-1.9-0.229-2.619-0.684c-0.709-0.455-1.222-0.973-1.532-1.552
		c-0.302-0.578-0.451-1.297-0.451-2.155c0-0.437,0.071-0.871,0.216-1.309c0.146-0.441,0.34-0.826,0.595-1.149
		c0.254-0.325,0.536-0.598,0.839-0.82c0.44-0.313,0.881-0.532,1.323-0.664c0.447-0.137,0.986-0.205,1.621-0.205
		C104.432,13.008,105.504,13.408,106.273,14.207z M100.87,17.583c0.061,0.806,0.104,1.271,0.13,1.397
		c0.086,0.434,0.221,0.809,0.407,1.121c0.125,0.2,0.332,0.381,0.621,0.536c0.289,0.154,0.637,0.233,1.037,0.233
		c0.48,0,0.887-0.15,1.213-0.449c0.334-0.306,0.566-0.78,0.715-1.425c0.092-0.423,0.137-1.115,0.137-2.078
		c0-1.181-0.195-2.019-0.596-2.507c-0.391-0.493-0.912-0.741-1.559-0.741c-0.506,0-0.928,0.14-1.264,0.418
		c-0.328,0.282-0.559,0.695-0.691,1.239C100.933,15.68,100.886,16.432,100.87,17.583z"/>
	<path fill-rule="evenodd" clip-rule="evenodd" fill="#6A1C55" d="M110.869,13.836c0.32-0.22,0.631-0.38,0.928-0.477
		c0.305-0.098,0.729-0.173,1.275-0.226h0.555c0.715,0,1.406,0.244,2.063,0.733l0.018-0.235l-0.006-0.653l0.039-1.046
		c0-1.098-0.086-1.793-0.258-2.085c-0.098-0.176-0.273-0.271-0.523-0.283c-0.244-0.014-0.441-0.056-0.592-0.128V8.969
		c0.123-0.039,0.285-0.059,0.482-0.059c0.197-0.007,0.584-0.076,1.156-0.205l0.336-0.069l0.979-0.224
		c0.199-0.045,0.316-0.069,0.365-0.069c0.031,0,0.086,0.006,0.158,0.021c0.039,0.136,0.059,0.238,0.059,0.303l-0.01,0.146v0.177
		c0,0.181,0.01,0.666,0.033,1.453v0.527l0.01,0.283l-0.01,0.488l0.025,1.014l-0.016,0.596c-0.016,0.261-0.02,0.67-0.02,1.228
		c0,0.094,0.002,0.173,0.01,0.245v0.361c-0.008,0.106-0.01,0.183-0.01,0.235c0,0.094,0.01,0.237,0.025,0.419v0.537l-0.006,0.204
		c-0.016,0.189-0.02,0.448-0.02,0.781c0,0.339,0.004,0.642,0.02,0.917c0.004,0.11,0.006,0.213,0.006,0.302v0.731
		c0,0.234,0.008,0.514,0.021,0.839c0.117,0.074,0.406,0.125,0.867,0.156c0.148,0.007,0.275,0.025,0.387,0.051
		c0.033,0.096,0.051,0.168,0.051,0.213c0,0.058-0.025,0.147-0.07,0.265c-0.271,0.063-0.555,0.112-0.848,0.146
		c-0.904,0.11-1.547,0.267-1.93,0.469c-0.182,0.104-0.314,0.155-0.387,0.155c-0.07,0-0.152-0.005-0.24-0.019
		c0.004-0.118,0.006-0.192,0.006-0.227c0-0.441-0.006-0.723-0.029-0.847c-0.098,0.052-0.219,0.118-0.367,0.205
		c-0.439,0.26-0.842,0.441-1.201,0.545c-0.363,0.097-0.779,0.147-1.246,0.147c-0.834,0-1.494-0.156-1.986-0.47
		c-0.732-0.455-1.238-1.002-1.521-1.64c-0.277-0.636-0.416-1.336-0.416-2.097C109.031,15.889,109.643,14.767,110.869,13.836z
		 M113.91,20.296c0.141,0.012,0.258,0.018,0.357,0.018c0.217,0,0.447-0.044,0.691-0.135c0.25-0.091,0.512-0.224,0.793-0.401
		c0.006-0.214,0.008-0.347,0.008-0.398c0-2.063-0.027-3.304-0.088-3.727c-0.08-0.567-0.297-1.002-0.654-1.308
		c-0.352-0.306-0.787-0.459-1.295-0.459c-0.287,0-0.566,0.052-0.832,0.155c-0.252,0.105-0.465,0.254-0.627,0.449
		c-0.248,0.286-0.428,0.611-0.555,0.975c-0.172,0.508-0.256,0.982-0.256,1.424c0,1.06,0.225,1.873,0.682,2.439
		C112.586,19.889,113.18,20.213,113.91,20.296z"/>
	<path fill-rule="evenodd" clip-rule="evenodd" fill="#6A1C55" d="M120.283,16.148c0.17-0.551,0.322-0.918,0.453-1.102
		c0.371-0.533,0.764-0.948,1.18-1.248c0.42-0.302,0.799-0.499,1.135-0.595c0.434-0.124,0.787-0.188,1.055-0.188
		c0.621,0,1.117,0.05,1.504,0.147c0.379,0.092,0.699,0.226,0.953,0.4c0.375,0.254,0.668,0.511,0.895,0.771
		c0.221,0.261,0.404,0.566,0.543,0.917c0.143,0.351,0.225,0.778,0.238,1.277l-1.098-0.019c-0.305,0-0.969-0.03-1.996-0.085
		c-0.383-0.027-0.645-0.042-0.787-0.042c-0.053,0-0.404,0.005-1.07,0.01h-0.85c-0.014,0.092-0.02,0.171-0.02,0.235
		c0,0.346,0.041,0.711,0.125,1.094c0.092,0.376,0.221,0.71,0.387,1.003c0.168,0.287,0.381,0.534,0.637,0.742
		c0.254,0.209,0.518,0.357,0.791,0.449l0.57,0.187c0.508,0,0.844-0.017,1.018-0.051c0.316-0.063,0.592-0.146,0.828-0.243
		c0.244-0.105,0.535-0.276,0.881-0.517c0.236,0.168,0.434,0.322,0.594,0.46c-0.578,0.629-1.184,1.088-1.813,1.374
		c-0.617,0.28-1.311,0.42-2.078,0.42c-0.525,0-0.949-0.047-1.279-0.137c-0.439-0.115-0.836-0.296-1.195-0.537
		c-0.355-0.242-0.66-0.54-0.916-0.899c-0.258-0.355-0.451-0.725-0.578-1.101c-0.16-0.494-0.244-0.892-0.244-1.189
		C120.145,17.115,120.191,16.605,120.283,16.148z M126.023,15.73c-0.006-0.365-0.078-0.712-0.215-1.045
		c-0.143-0.331-0.352-0.586-0.645-0.771c-0.289-0.188-0.58-0.282-0.877-0.282c-0.441,0-0.844,0.192-1.197,0.575
		c-0.357,0.385-0.559,0.906-0.602,1.562l2.252,0.01c0.145,0,0.35-0.01,0.613-0.032c0.191-0.017,0.32-0.027,0.402-0.027
		C125.818,15.72,125.906,15.723,126.023,15.73z"/>
	<path fill-rule="evenodd" clip-rule="evenodd" fill="#6A1C55" d="M129.305,20.841c0.082-0.07,0.193-0.122,0.334-0.155
		c0.336-0.07,0.654-0.202,0.959-0.39c0.059-0.155,0.088-0.683,0.088-1.582c0-1.645-0.033-2.756-0.107-3.335
		c-0.016-0.104-0.068-0.196-0.158-0.273c-0.166-0.085-0.389-0.16-0.674-0.224c-0.129-0.033-0.209-0.105-0.234-0.215l-0.027-0.361
		c0.484-0.065,0.926-0.227,1.322-0.488c0.395-0.267,0.689-0.536,0.887-0.809c0.107-0.15,0.197-0.262,0.277-0.342l0.693-0.03
		c0.031,0.15,0.049,0.274,0.049,0.372c0,0.072-0.006,0.16-0.012,0.263c-0.006,0.227-0.012,0.417-0.012,0.565
		c0,0.072,0.006,0.342,0.012,0.81c0.27-0.454,0.465-0.76,0.592-0.917c0.063-0.07,0.234-0.231,0.523-0.477
		c0.225-0.162,0.479-0.244,0.762-0.244c0.35,0,0.652,0.118,0.908,0.352c0.256,0.233,0.389,0.504,0.389,0.81
		c0,0.305-0.1,0.58-0.299,0.829c-0.193,0.241-0.447,0.361-0.773,0.361c-0.279,0-0.578-0.118-0.885-0.353
		c-0.184-0.142-0.334-0.214-0.445-0.214l-0.068,0.01c-0.143,0.045-0.264,0.169-0.377,0.371c-0.184,0.326-0.277,0.663-0.277,1.015
		l0.021,0.264c0.025,0.48,0.047,1.607,0.057,3.384c0.021,0.163,0.084,0.325,0.191,0.489c0.117,0.091,0.234,0.157,0.352,0.195
		c0.129,0.038,0.342,0.07,0.643,0.096c0.305,0.027,0.488,0.069,0.555,0.129c0.066,0.051,0.1,0.139,0.104,0.264
		c0,0.07-0.025,0.164-0.061,0.284h-0.936l-1.881-0.1c-0.475,0-0.91,0.021-1.297,0.059h-0.168c-0.043,0-0.389,0.017-1.025,0.049
		c-0.021-0.104-0.031-0.182-0.031-0.235C129.273,21.014,129.283,20.94,129.305,20.841z"/>
	<path fill-rule="evenodd" clip-rule="evenodd" fill="#6A1C55" d="M137.572,9.68c0-0.351,0.115-0.637,0.348-0.859
		c0.227-0.227,0.525-0.339,0.887-0.341c0.389,0,0.711,0.122,0.971,0.361c0.252,0.233,0.385,0.501,0.385,0.798
		c0,0.223-0.057,0.445-0.158,0.665c-0.098,0.223-0.266,0.401-0.486,0.538c-0.219,0.131-0.441,0.196-0.668,0.196
		c-0.322,0-0.611-0.135-0.883-0.403C137.703,10.37,137.572,10.051,137.572,9.68z M136.188,21.319l-0.018-0.634l1.117-0.145
		c0.162-0.048,0.277-0.11,0.334-0.196c0.066-0.091,0.098-0.289,0.098-0.594V19.64c0-0.076,0.006-0.216,0.01-0.417
		c0.014-0.208,0.021-0.392,0.021-0.547c0-0.123-0.01-0.362-0.031-0.713l0.01-0.487l-0.01-0.459l0.021-1.587
		c0-0.204-0.021-0.411-0.059-0.626c-0.072-0.097-0.207-0.182-0.395-0.255c-0.189-0.069-0.523-0.121-0.998-0.155v-0.546
		c0.676-0.038,1.275-0.177,1.787-0.419c0.35-0.156,0.727-0.431,1.135-0.829h0.662c0.027,0.806,0.043,1.853,0.043,3.142l-0.072,3.981
		c0,0.272,0.012,0.52,0.041,0.741c0.203,0.071,0.537,0.143,0.996,0.213c0.176,0.028,0.32,0.059,0.424,0.1l-0.01,0.536
		c-0.174,0.006-0.307,0.009-0.395,0.009c-0.1,0-0.25-0.007-0.451-0.019c-0.672-0.032-1.574-0.049-2.699-0.049
		c-0.322,0-0.637,0.012-0.939,0.041C136.51,21.311,136.301,21.319,136.188,21.319z"/>
	<path fill-rule="evenodd" clip-rule="evenodd" fill="#6A1C55" d="M150.119,14.207c0.422,0.405,0.732,0.869,0.936,1.396
		c0.211,0.521,0.318,1.011,0.318,1.474c0,0.871-0.135,1.574-0.404,2.105c-0.41,0.81-0.961,1.404-1.65,1.785
		c-0.693,0.386-1.496,0.578-2.412,0.578c-1.023,0-1.898-0.229-2.619-0.684c-0.709-0.455-1.219-0.973-1.525-1.552
		c-0.307-0.578-0.457-1.297-0.457-2.155c0-0.437,0.072-0.871,0.219-1.309c0.143-0.441,0.34-0.826,0.59-1.149
		c0.256-0.325,0.539-0.598,0.842-0.82c0.439-0.313,0.883-0.532,1.324-0.664c0.445-0.137,0.986-0.205,1.619-0.205
		C148.275,13.008,149.35,13.408,150.119,14.207z M144.715,17.583c0.059,0.806,0.102,1.271,0.129,1.397
		c0.086,0.434,0.221,0.809,0.408,1.121c0.121,0.2,0.33,0.381,0.621,0.536c0.283,0.154,0.631,0.233,1.033,0.233
		c0.484,0,0.887-0.15,1.215-0.449c0.33-0.306,0.566-0.78,0.713-1.425c0.094-0.423,0.139-1.115,0.139-2.078
		c0-1.181-0.197-2.019-0.594-2.507c-0.395-0.493-0.914-0.741-1.557-0.741c-0.508,0-0.93,0.14-1.27,0.418
		c-0.326,0.282-0.561,0.695-0.689,1.239C144.779,15.68,144.729,16.432,144.715,17.583z"/>
	<path fill-rule="evenodd" clip-rule="evenodd" fill="#6A1C55" d="M153.605,9.72c0-0.365,0.119-0.665,0.365-0.899
		c0.252-0.233,0.576-0.349,0.979-0.349c0.305,0,0.578,0.103,0.822,0.311c0.248,0.209,0.371,0.514,0.371,0.917
		c0,0.364-0.119,0.67-0.363,0.916c-0.238,0.242-0.535,0.362-0.9,0.362c-0.393,0-0.709-0.112-0.938-0.343
		C153.715,10.402,153.605,10.097,153.605,9.72z M152.547,14.443l-0.008-0.529c0.668-0.084,1.137-0.182,1.393-0.292
		c0.26-0.117,0.791-0.469,1.582-1.054l0.232,0.011h0.111c0.041,0,0.084,0.001,0.139,0.01v0.175l0.02,0.654l-0.01,0.556
		c0,0.688,0.01,1.208,0.029,1.561l0.014,0.283l-0.014,0.564c0,0.736,0.008,1.221,0.023,1.455c0.018,0.225,0.025,0.444,0.025,0.654
		l-0.008,3.589c0,0.475-0.109,0.936-0.338,1.388c-0.217,0.454-0.584,0.922-1.096,1.404c-0.508,0.487-0.979,0.853-1.422,1.091
		l-0.535-0.467c0.063-0.087,0.168-0.226,0.318-0.42c0.467-0.587,0.748-1.042,0.848-1.368c0.107-0.323,0.162-1.068,0.162-2.232
		l-0.053-1.609l-0.008-0.693v-0.662l-0.051-3.638c-0.037-0.085-0.086-0.137-0.148-0.158
		C153.504,14.624,153.102,14.533,152.547,14.443z"/>
	<path fill-rule="evenodd" clip-rule="evenodd" fill="#6A1C55" d="M166.508,19.485l0.229,0.146c0.059,0.047,0.094,0.101,0.105,0.164
		l0.014,0.051c-0.158,0.579-0.369,0.979-0.623,1.201c-0.256,0.213-0.58,0.322-0.961,0.322c-0.391,0-0.723-0.106-1.006-0.314
		c-0.277-0.215-0.529-0.588-0.76-1.122c-0.283,0.497-0.684,0.869-1.197,1.122c-0.514,0.248-1.145,0.37-1.887,0.37
		c-0.682,0-1.186-0.138-1.51-0.417c-0.326-0.288-0.484-0.661-0.484-1.123c0-0.216,0.045-0.434,0.137-0.653
		c0.098-0.222,0.254-0.438,0.463-0.654c0.215-0.221,0.564-0.46,1.041-0.722c0.07-0.038,0.32-0.148,0.75-0.332l2.459-0.975
		c0.021-0.247,0.029-0.498,0.029-0.752c0-0.878-0.107-1.477-0.326-1.795c-0.133-0.195-0.361-0.293-0.689-0.293
		s-0.631,0.062-0.914,0.185c-0.273,0.124-0.475,0.283-0.598,0.478c-0.092,0.145-0.174,0.415-0.238,0.81
		c-0.045,0.287-0.09,0.454-0.127,0.498c-0.1,0.125-0.283,0.239-0.545,0.341c-0.26,0.098-0.434,0.171-0.525,0.216
		c-0.354,0.17-0.635,0.252-0.85,0.252c-0.092-0.077-0.137-0.186-0.137-0.329c0-0.374,0.076-0.691,0.236-0.958
		c0.238-0.376,0.596-0.74,1.068-1.092c0.479-0.358,0.928-0.608,1.344-0.751c0.564-0.183,1.258-0.273,2.072-0.273
		c0.529,0,0.979,0.097,1.355,0.291c0.383,0.188,0.643,0.473,0.793,0.851c0.146,0.375,0.223,1.057,0.223,2.04l-0.029,1.607
		l0.018,1.181v0.302c0,0.273,0.037,0.462,0.111,0.565c0.08,0.098,0.18,0.147,0.297,0.147c0.072,0,0.137-0.021,0.188-0.059
		l0.299-0.458L166.508,19.485z M163.266,17.222c-0.371,0.124-0.801,0.331-1.275,0.625c-0.465,0.285-0.791,0.575-0.975,0.867
		c-0.135,0.215-0.197,0.479-0.197,0.79c0,0.28,0.084,0.514,0.256,0.692c0.174,0.184,0.369,0.276,0.594,0.276
		c0.369,0,0.68-0.106,0.939-0.314c0.348-0.279,0.551-0.501,0.611-0.662c0.059-0.17,0.088-0.643,0.088-1.416
		C163.307,17.795,163.295,17.507,163.266,17.222z"/>
	<path fill-rule="evenodd" clip-rule="evenodd" fill="#3B3932" d="M168.078,20.698c0-0.243,0.09-0.458,0.27-0.643
		c0.186-0.181,0.398-0.274,0.645-0.274c0.236,0,0.439,0.085,0.6,0.26c0.164,0.172,0.246,0.39,0.246,0.651
		c0,0.261-0.088,0.482-0.262,0.66c-0.17,0.18-0.375,0.269-0.619,0.269c-0.236,0-0.441-0.089-0.615-0.269
		C168.164,21.17,168.078,20.952,168.078,20.698z"/>
	<path fill-rule="evenodd" clip-rule="evenodd" fill="#3B3932" d="M177.617,19.849l0.012,0.542c-0.439,0.462-0.873,0.785-1.305,0.97
		c-0.43,0.186-0.93,0.277-1.514,0.277c-0.633,0-1.205-0.162-1.713-0.484c-0.506-0.329-0.898-0.791-1.176-1.39
		c-0.27-0.595-0.41-1.182-0.41-1.755c0-0.631,0.168-1.224,0.492-1.781c0.336-0.563,0.773-0.981,1.313-1.255
		c0.549-0.276,1.238-0.418,2.061-0.418c0.789,0,1.391,0.134,1.803,0.402c0.23,0.157,0.35,0.356,0.35,0.603
		c0,0.179-0.061,0.326-0.18,0.443c-0.119,0.117-0.27,0.174-0.459,0.174c-0.279,0-0.592-0.172-0.93-0.52
		c-0.211-0.21-0.398-0.353-0.566-0.432c-0.174-0.085-0.359-0.127-0.566-0.127c-0.502,0-0.924,0.206-1.254,0.611
		c-0.465,0.58-0.695,1.307-0.695,2.182c0,0.904,0.236,1.623,0.711,2.157c0.475,0.537,1.027,0.803,1.66,0.803
		c0.441,0,0.832-0.068,1.166-0.207C176.764,20.498,177.164,20.234,177.617,19.849z"/>
	<path fill-rule="evenodd" clip-rule="evenodd" fill="#3B3932" d="M178.695,18.016c0-0.377,0.078-0.783,0.238-1.21
		c0.162-0.435,0.408-0.823,0.736-1.165c0.328-0.346,0.674-0.601,1.041-0.768c0.514-0.235,1.141-0.353,1.881-0.353
		c1.053,0,1.938,0.358,2.643,1.072c0.709,0.712,1.066,1.573,1.066,2.573c0,0.895-0.375,1.691-1.119,2.394
		c-0.74,0.697-1.678,1.045-2.811,1.045c-0.701,0-1.361-0.181-1.979-0.543c-0.469-0.272-0.867-0.678-1.197-1.212
		C178.861,19.313,178.695,18.702,178.695,18.016z M182.438,21.278c0.43,0,0.842-0.113,1.238-0.343
		c0.398-0.229,0.719-0.595,0.953-1.096c0.24-0.509,0.355-1.092,0.355-1.757c0-0.434-0.092-0.939-0.275-1.512
		c-0.18-0.576-0.465-1.004-0.85-1.29c-0.377-0.289-0.822-0.434-1.336-0.435c-0.373,0-0.752,0.087-1.143,0.258
		c-0.385,0.175-0.715,0.506-0.984,0.998C180.131,16.594,180,17.29,180,18.191c0,1.017,0.232,1.786,0.695,2.31
		C181.164,21.019,181.744,21.278,182.438,21.278z"/>
	<path fill-rule="evenodd" clip-rule="evenodd" fill="#3B3932" d="M187.266,21.086c0.09-0.063,0.215-0.103,0.371-0.126
		c0.225-0.028,0.4-0.072,0.527-0.134c0.1-0.085,0.168-0.203,0.201-0.358c0.039-0.202,0.063-0.906,0.063-2.116
		c0-1.187-0.039-1.954-0.111-2.299c-0.125-0.079-0.287-0.139-0.484-0.184c-0.063-0.012-0.189-0.042-0.389-0.092V15.5
		c0.334-0.096,0.602-0.218,0.803-0.369c0.211-0.148,0.496-0.449,0.865-0.902h0.047c0.037,0,0.092-0.001,0.166-0.009
		c0.043,0.008,0.08,0.02,0.107,0.043l-0.008,0.954c0,0.193,0.006,0.403,0.02,0.626c0.602-0.539,1.145-0.918,1.623-1.137
		c0.328-0.146,0.699-0.218,1.111-0.22c0.49,0,0.879,0.093,1.166,0.278c0.289,0.186,0.563,0.516,0.822,0.996
		c0.504-0.491,0.955-0.834,1.363-1.029c0.412-0.195,0.828-0.292,1.246-0.292c0.629,0,1.148,0.202,1.555,0.609
		c0.402,0.413,0.609,1.019,0.621,1.816v0.692l0.01,0.762l-0.01,1.956c-0.004,0.229,0.043,0.401,0.15,0.519
		c0.049,0.019,0.219,0.068,0.518,0.151c0.186,0.049,0.297,0.089,0.33,0.117c0.035,0.028,0.051,0.067,0.051,0.115
		c0,0.064-0.016,0.135-0.051,0.219h-0.059l-0.852-0.049c-0.104-0.006-0.268-0.008-0.486-0.01c-0.273,0-0.648,0.012-1.135,0.034
		h-0.432c-0.061,0-0.184,0.003-0.361,0.008c-0.008-0.049-0.01-0.095-0.01-0.135c0-0.043,0.02-0.101,0.057-0.165
		c0.154-0.067,0.363-0.121,0.625-0.162c0.268-0.041,0.432-0.117,0.492-0.224c0.068-0.111,0.102-0.546,0.102-1.305
		c0-1.646-0.021-2.598-0.059-2.861c-0.068-0.418-0.246-0.742-0.541-0.977c-0.289-0.24-0.65-0.359-1.092-0.363
		c-0.34,0-0.67,0.093-0.992,0.271c-0.32,0.174-0.639,0.435-0.947,0.785l-0.008,0.202v1.28l-0.035,0.995
		c0,1.014,0.01,1.592,0.029,1.729c0.018,0.142,0.066,0.244,0.141,0.313c0.078,0.063,0.303,0.117,0.668,0.165
		c0.166,0.024,0.291,0.047,0.383,0.066c0.064,0.057,0.102,0.131,0.102,0.218c0,0.073-0.029,0.123-0.076,0.15h-0.145l-0.424-0.008
		h-2.467l-0.674,0.008c-0.012-0.082-0.02-0.142-0.02-0.185l0.01-0.098c0.125-0.067,0.357-0.133,0.693-0.194
		c0.174-0.025,0.357-0.073,0.541-0.143c0.037-0.025,0.061-0.063,0.078-0.106c0.027-0.079,0.051-0.3,0.061-0.669l0.043-0.971
		l-0.016-1.097l0.006-0.608c0-0.687-0.141-1.186-0.424-1.497c-0.283-0.318-0.637-0.478-1.066-0.478c-0.4,0-0.805,0.098-1.211,0.294
		c-0.398,0.192-0.734,0.457-0.998,0.784c-0.006,0.157-0.008,0.299-0.008,0.428l0.031,2.81c0.004,0.615,0.039,0.963,0.102,1.053
		c0.066,0.085,0.217,0.143,0.441,0.177c0.361,0.048,0.596,0.112,0.701,0.184c0.053,0.034,0.076,0.084,0.076,0.151
		c0,0.045-0.002,0.098-0.006,0.157c-0.643-0.043-1.078-0.065-1.299-0.065c-0.223,0-0.43,0.001-0.605,0.009l-0.426,0.023h-0.262
		l-0.947,0.033c-0.012-0.037-0.018-0.072-0.018-0.101C187.232,21.226,187.242,21.17,187.266,21.086z"/>
</g>
</svg>
